<?xml version="1.0" encoding="UTF-8"?>
<!DOCTYPE svg PUBLIC "-//W3C//DTD SVG 1.1//EN" "http://www.w3.org/Graphics/SVG/1.1/DTD/svg11.dtd">
<!-- Creator: CorelDRAW X7 -->
<svg xmlns="http://www.w3.org/2000/svg" xml:space="preserve" width="26.4582mm" height="26.4582mm" version="1.1" style="shape-rendering:geometricPrecision; text-rendering:geometricPrecision; image-rendering:optimizeQuality; fill-rule:evenodd; clip-rule:evenodd"
viewBox="0 0 2646 2646"
 xmlns:xlink="http://www.w3.org/1999/xlink">
 <defs>
  <style type="text/css">
   <![CDATA[
    .str2 {stroke:#2B2A29;stroke-width:79.37}
    .str1 {stroke:#2B2A29;stroke-width:26.46}
    .str0 {stroke:#2B2A29;stroke-width:20}
    .fil0 {fill:none}
    .fil2 {fill:#2B2A29}
    .fil1 {fill:#7688A1}
   ]]>
  </style>
 </defs>
 <g id="Plan_x0020_1">
  <metadata id="CorelCorpID_0Corel-Layer"/>
  <g id="_2047703054864">
   <path class="fil0 str0" d="M1233 221l110 0c711,142 162,818 143,1000"/>
   <path class="fil0 str0" d="M1394 220l-110 0c-711,142 -162,819 -143,1000"/>
   <path class="fil0 str0" d="M1141 1220l345 1 -11 274c0,0 -77,99 -110,110 -33,11 -121,22 -88,22 33,0 -121,-66 -143,-121 -22,-55 7,-286 7,-286z"/>
  </g>
  <path class="fil1 str0" d="M1486 1221l-345 -1c0,0 -29,231 -7,286 19,47 134,102 146,117 21,-4 64,-11 85,-18 33,-11 110,-110 110,-110l11 -274z"/>
  <path class="fil2 str0" d="M1486 1221l-345 -1c0,0 -29,231 -7,286 19,47 134,102 146,117 9,-1 21,-4 33,-6 19,-4 39,-8 52,-12 33,-11 110,-110 110,-110l11 -274z"/>
  <g id="_2012703093024">
   <line class="fil0 str1" x1="1310" y1="1759" x2="1305" y2= "1619" />
   <ellipse class="fil0 str2" cx="1318" cy="1832" rx="26" ry="23"/>
  </g>
 </g>
</svg>
