<?xml version="1.0" encoding="UTF-8"?>
<!DOCTYPE svg PUBLIC "-//W3C//DTD SVG 1.1//EN" "http://www.w3.org/Graphics/SVG/1.1/DTD/svg11.dtd">
<!-- Creator: CorelDRAW X7 -->
<svg xmlns="http://www.w3.org/2000/svg" xml:space="preserve" width="215.9mm" height="279.4mm" version="1.1" style="shape-rendering:geometricPrecision; text-rendering:geometricPrecision; image-rendering:optimizeQuality; fill-rule:evenodd; clip-rule:evenodd"
viewBox="0 0 21590 27940"
 xmlns:xlink="http://www.w3.org/1999/xlink">
 <defs>
  <style type="text/css">
   <![CDATA[
    .fil0 {fill:#1F1B20}
    .fil4 {fill:#565656}
    .fil2 {fill:#949494}
    .fil3 {fill:#B8B8BA}
    .fil1 {fill:#FDFDFD}
   ]]>
  </style>
   <clipPath id="id0">
    <rect x="6814" y="9790" width="7963" height="8360"/>
   </clipPath>
 </defs>
 <g id="Plan_x0020_1">
  <metadata id="CorelCorpID_0Corel-Layer"/>
  <g style="clip-path:url(#id0)">
   <image x="6814" y="9790" width="7963" height="8360" xlink:href="settings_Images\settings_ImgID1.png"/>
  </g>
  <g id="_1801836614800">
   <path class="fil0" d="M8888 13472l-3 -49 42 0c108,-355 318,-668 618,-883 35,-24 25,-19 57,-47l142 -90c53,-34 -6,-4 64,-43 237,-135 270,-100 478,-177 232,-86 529,-42 783,-27l59 0 0 40c237,19 407,127 601,240 71,42 97,76 175,119l23 17 51 -5 -2 40c48,-12 36,-17 20,31l14 25c29,-4 22,-11 22,18l42 1 -4 44 28 27c28,16 23,13 52,42 36,38 7,33 54,56 51,0 42,-12 28,37 41,18 24,2 32,47l110 187c75,129 147,348 167,501l40 0 2 68c-5,108 15,206 15,321 1,114 -17,208 -18,315l-4 70 -39 0c-6,204 -170,558 -275,686l-4 43 -42 0 -39 62c-7,71 -39,68 -83,95l-99 103c-53,90 0,35 -94,84 -188,141 -528,363 -763,351l0 43 -50 8c-203,5 -517,45 -726,-2 -69,-15 -118,-41 -195,-58l-215 -79c-113,-65 -202,-71 -375,-219 -33,-28 -26,-27 -69,-49 -218,-156 -118,-106 -206,-185l-218 -306c-18,-33 -24,-55 -41,-87l-118 -279 -46 0 5 -52c-9,-177 -58,-340 -57,-544 1,-205 37,-353 61,-540zm864 -2976c-9,58 11,31 -35,49l-15 654 -104 46c-105,57 -288,104 -448,224 -39,29 -55,33 -95,54 -224,120 -221,259 -369,175l-386 -222 -45 -2 0 -40c-140,-35 -280,-48 -398,31l-64 43c-1,1 -54,46 -56,49 -32,36 -52,89 -80,133l-319 566 -2 40 -39 0c-95,194 -263,409 -219,606 20,89 93,209 164,260l270 153 42 0 0 42c42,15 72,28 114,53 100,58 -5,26 103,54l-8 159 -3 75 -41 0 -2 630 41 0 8 79 6 154c-84,23 -190,118 -287,165 -164,78 -270,135 -361,293 -21,37 -48,93 -53,158 -10,120 56,254 118,360l449 776c96,134 46,159 199,227 46,14 26,-4 37,43 104,37 206,52 329,22 92,-23 64,-25 113,-58l213 -124c200,-95 203,-173 317,-75 29,25 -1,2 34,31 4,3 9,6 12,9 4,3 9,6 13,9l253 170c100,77 77,31 208,112 3,2 8,6 12,8 75,45 309,100 326,175l11 620 38 0 -2 50c40,125 34,105 130,193 3,3 7,8 10,10 12,11 17,17 35,28 33,19 61,24 96,32 135,30 356,17 509,17 253,0 801,47 972,-60l0 -45 42 -1 63 -60 4 -42 41 0c68,-208 45,-492 44,-742 30,-61 33,-35 112,-70 15,-48 -10,-28 44,-37l171 -62 0 -49 48 4c132,-36 210,-92 319,-166l147 -103 0 -45 42 -2c93,-57 69,-30 168,3l44 -1 0 44c71,42 87,37 162,90 189,133 420,223 624,82 163,-112 154,-183 255,-338 35,-53 53,-94 80,-147l3 -43 40 0c20,-57 43,-100 57,-154l-6 -49 51 0 100 -167c22,-35 33,-65 49,-97 3,-6 21,-38 23,-41 111,-172 161,-412 17,-570 -3,-3 -7,-7 -10,-11 -96,-103 -41,-46 -142,-112l-350 -200c-74,-41 -96,-61 -87,-185 4,-46 14,-85 18,-130 30,-351 -20,-554 -21,-842l218 -125c3,-2 8,-6 12,-9l150 -81c4,-3 9,-6 13,-9 4,-2 9,-6 13,-8l126 -84c27,-23 15,-15 41,-44l21 -21c3,-3 7,-8 10,-11 42,-50 18,-1 45,-81 74,-221 -24,-420 -148,-616 -26,-42 -4,-1 -34,-50l-63 -129 -42 0 0 -42c-13,-30 -29,-69 -47,-101l-200 -350c-49,-97 -106,-166 -183,-217 -85,-58 14,-19 -92,-56 -168,-60 -287,-8 -400,55 -14,7 -27,14 -43,21 -28,14 -61,30 -82,44 -38,24 -35,28 -92,57 -27,13 -59,27 -88,39l0 42 -43 1c-48,22 -99,72 -125,18l-37 -28 -47 11 0 -43c-27,-17 -44,-25 -78,-49 -32,-22 -36,-31 -57,-47 -43,-33 -90,-52 -137,-75l-40 -1 0 -42c-57,-29 -90,-40 -153,-60l-42 1 0 -43c-69,-23 -317,-89 -333,-169 0,-240 32,-535 -48,-736l-44 0 -2 -42c-42,-67 6,-24 -63,-59l-49 4 0 -53c-109,-97 -1430,-102 -1575,-3 -56,37 3,-4 -33,29 -91,83 -105,82 -132,194z"/>
   <path class="fil0" d="M10436 12614l-34 5c-112,7 -217,39 -308,91 -173,100 -243,108 -458,345 -66,72 -155,172 -177,263l5 50 -51 0c-93,189 -149,390 -149,644 -1,284 51,410 148,653l44 0 -2 45c26,81 64,114 104,169l125 150c59,63 237,203 326,245 50,23 40,17 83,42l26 16c4,2 9,6 14,8 16,8 46,20 60,25 299,102 442,97 774,81l0 -40 60 2 267 -65 0 -42 43 0 203 -113c95,-64 229,-165 275,-271l-4 -49 53 0c34,-30 20,-21 41,-55l210 -533 9 -76 41 0 -2 -381 -41 0 -7 -77c-5,-58 -14,-124 -34,-184 -4,-14 -5,-17 -11,-32 -2,-4 -5,-10 -7,-14l-198 -370 -43 0 -2 -43 -151 -164c-93,-89 -211,-169 -333,-215l-43 0 0 -42 -269 -64 -67 -6 0 -42 -469 6 0 41 -51 -3z"/>
   <path class="fil1" d="M9413 13368l2 -50 44 0c22,-91 111,-191 177,-263 215,-237 285,-245 458,-345 91,-52 196,-84 308,-91 13,-66 -23,-22 34,-50l51 7 469 -6 67 7 0 41 269 64 43 0 0 42c122,46 240,126 333,215l151 164 44 0 1 43 198 370c2,4 5,10 7,14 6,15 7,18 11,32 20,60 29,126 34,184 53,11 31,-1 48,77l2 381 -17 76 -33 0 -210 533c-21,34 -7,25 -41,55l-4 49 -45 0c-46,106 -180,207 -275,271l-203 113 0 42 -43 0 -267 65 0 41 -60 -3c-332,16 -475,21 -774,-81 -14,-5 -44,-17 -60,-25 -5,-2 -10,-6 -14,-8l-26 -16c-43,-25 -33,-19 -83,-42 -89,-42 -267,-182 -326,-245l-125 -150c-40,-55 -78,-88 -104,-169l-41 0 -1 -45c-97,-243 -149,-369 -148,-653 0,-254 56,-455 149,-644zm-486 55l0 49 -39 0c-24,187 -60,335 -61,540 -1,204 48,367 57,544l40 0 1 52 118 279c17,32 23,54 41,87l218 306c119,34 7,26 102,91 82,58 36,-18 104,94 43,22 36,21 69,49 173,148 262,154 375,219l215 79c77,17 126,43 195,58 209,47 523,7 726,2 16,-51 -34,-16 50,-51 235,12 575,-210 763,-351 55,-92 -1,-33 94,-84l99 -103 83 -95 39 -62 0 -43 46 0c105,-128 269,-482 275,-686l6 -70 37 0c1,-107 19,-201 18,-315 0,-115 -20,-213 -15,-321l-37 0 -5 -68c-20,-153 -92,-372 -167,-501l-110 -187 -44 0 12 -47 -28 -37c-47,-23 -18,-18 -54,-56 -29,-29 -24,-26 -52,-42 -40,0 -33,11 -28,-27l-39 -2 1 -43 -22 -18c-38,5 -30,11 -14,-25l-20 -31 -47 9 -2 -44c-29,6 -23,13 -23,-17 -78,-43 -104,-77 -175,-119 -194,-113 -364,-221 -601,-240l-59 4 0 -44c-254,-15 -551,-59 -783,27 -208,77 -241,42 -478,177 -70,39 -11,9 -64,43l-142 90c-32,28 -22,23 -57,47 -300,215 -510,528 -618,883z"/>
   <path class="fil2" d="M9508 15465c-68,-112 -22,-36 -104,-94 -95,-65 17,-57 -102,-91 88,79 -12,29 206,185z"/>
   <polygon class="fil3" points="7719,13698 7760,13698 7763,13623 7724,13623 "/>
   <path class="fil4" d="M11927 12572l2 44 47 -9 20 31c16,-48 28,-43 -20,-31l2 -40 -51 5 -23 -17c0,30 -6,23 23,17z"/>
   <polygon class="fil3" points="7766,14407 7758,14328 7717,14328 7732,14407 "/>
   <path class="fil3" d="M12010 12663l22 18 -1 43 39 2c-5,38 -12,27 28,27l-28 -27 4 -44 -42 -1c0,-29 7,-22 -22,-18l-14 -25c-16,36 -24,30 14,25z"/>
   <polygon class="fil3" points="12114,14280 12147,14280 12164,14204 12123,14204 "/>
   <path class="fil3" d="M12162 13823c-17,-78 5,-66 -48,-77l7 77 41 0z"/>
   <polygon class="fil3" points="11023,12618 11023,12577 10956,12570 10956,12612 "/>
   <polygon class="fil3" points="12537,14397 12576,14397 12580,14327 12543,14327 "/>
   <polygon class="fil2" points="12583,13691 12581,13623 12541,13623 12546,13691 "/>
   <path class="fil2" d="M11901 15470c94,-49 41,6 94,-84 -95,51 -39,-8 -94,84z"/>
   <polygon class="fil4" points="11541,10325 11541,10279 11492,10276 11492,10329 "/>
   <polygon class="fil3" points="11128,12196 11128,12156 11069,12156 11069,12200 "/>
   <polygon class="fil2" points="10966,15446 11026,15449 11026,15408 10966,15406 "/>
   <polygon class="fil4" points="11814,14917 11859,14917 11863,14868 11810,14868 "/>
   <polygon class="fil4" points="9413,13368 9464,13368 9459,13318 9415,13318 "/>
   <polygon class="fil4" points="14013,15868 14055,15868 14058,15819 14007,15819 "/>
   <polygon class="fil4" points="8925,14608 8924,14556 8884,14556 8879,14608 "/>
   <path class="fil4" d="M12232 12888l-12 47 44 0c-8,-45 9,-29 -32,-47 14,-49 23,-37 -28,-37l28 37z"/>
   <path class="fil3" d="M12585 11679l37 28c0,-51 13,-41 -37,-28 -17,-39 -2,-23 -47,-32l0 43 47 -11z"/>
   <polygon class="fil4" points="12024,16693 12072,16691 12072,16648 12024,16644 "/>
   <polygon class="fil4" points="10436,12614 10487,12617 10487,12576 10436,12569 "/>
   <polygon class="fil4" points="8888,13472 8927,13472 8927,13423 8885,13423 "/>
   <polygon class="fil4" points="9454,14710 9456,14665 9412,14665 9413,14710 "/>
   <polygon class="fil2" points="8300,11476 8300,11431 8255,11434 8255,11474 "/>
   <polygon class="fil2" points="12216,15126 12258,15126 12262,15083 12216,15083 "/>
   <polygon class="fil2" points="12538,16379 12580,16376 12580,16332 12538,16334 "/>
   <polygon class="fil2" points="13913,16065 13958,16065 13956,16022 13916,16022 "/>
   <polygon class="fil4" points="12792,16378 12792,16334 12748,16335 12748,16376 "/>
   <polygon class="fil4" points="11503,17752 11545,17749 11545,17706 11503,17707 "/>
   <polygon class="fil3" points="9751,17532 9753,17482 9715,17482 9715,17532 "/>
   <polygon class="fil2" points="11864,13146 11863,13103 11819,13103 11821,13146 "/>
   <polygon class="fil2" points="11608,17646 11654,17646 11653,17604 11612,17604 "/>
   <polygon class="fil2" points="11293,15343 11336,15343 11336,15301 11293,15301 "/>
   <polygon class="fil2" points="12747,11689 12790,11688 12790,11646 12747,11646 "/>
   <polygon class="fil3" points="11335,12724 11335,12682 11292,12682 11292,12724 "/>
   <polygon class="fil2" points="11650,10426 11647,10384 11604,10384 11606,10426 "/>
   <polygon class="fil2" points="14059,12196 14059,12154 14017,12154 14017,12196 "/>
   <polygon class="fil2" points="12073,11373 12073,11332 12031,11331 12031,11374 "/>
   <path class="fil3" d="M11088 15872l50 -8 0 -43c-84,35 -34,0 -50,51z"/>
   <polygon class="fil3" points="7554,13357 7554,13315 7512,13315 7512,13357 "/>
   <path class="fil2" d="M12094 15283c44,-27 76,-24 83,-95l-83 95z"/>
   <path class="fil4" d="M12266 11476c-14,-64 24,-25 -40,-43l0 42 40 1z"/>
   <path class="fil3" d="M9717 10545c46,-18 26,9 35,-49l-35 0 0 49z"/>
   <path class="fil4" d="M7297 12296l39 0 2 -40c-65,15 -24,-27 -41,40z"/>
   <path class="fil3" d="M11809 16792l44 -3 0 -34c-54,9 -29,-11 -44,37z"/>
   <path class="fil3" d="M10402 12619l34 -5 0 -45c-57,28 -21,-16 -34,50z"/>
   <path class="fil3" d="M7874 16583c-11,-47 9,-29 -37,-43l0 38 37 5z"/>
  </g>
 </g>
</svg>
